<svg width="20" height="20" viewBox="0 0 20 20" fill="none" xmlns="http://www.w3.org/2000/svg">
<mask id="mask0_804_562" style="mask-type:alpha" maskUnits="userSpaceOnUse" x="0" y="0" width="20" height="20">
<rect width="20" height="20" fill="#D9D9D9"/>
</mask>
<g mask="url(#mask0_804_562)">
<path d="M9.1665 9.83329V12.5C9.1665 12.7361 9.24637 12.934 9.40609 13.0937C9.56581 13.2534 9.76373 13.3333 9.99984 13.3333C10.2359 13.3333 10.4339 13.2534 10.5936 13.0937C10.7533 12.934 10.8332 12.7361 10.8332 12.5V9.83329L11.5832 10.5833C11.7359 10.7361 11.9304 10.8125 12.1665 10.8125C12.4026 10.8125 12.5971 10.7361 12.7498 10.5833C12.9026 10.4305 12.979 10.2361 12.979 9.99996C12.979 9.76385 12.9026 9.5694 12.7498 9.41663L10.5832 7.24996C10.4165 7.08329 10.2221 6.99996 9.99984 6.99996C9.77761 6.99996 9.58317 7.08329 9.4165 7.24996L7.24984 9.41663C7.09706 9.5694 7.02067 9.76385 7.02067 9.99996C7.02067 10.2361 7.09706 10.4305 7.24984 10.5833C7.40262 10.7361 7.59706 10.8125 7.83317 10.8125C8.06928 10.8125 8.26373 10.7361 8.4165 10.5833L9.1665 9.83329ZM9.99984 18.3333C8.84706 18.3333 7.76373 18.1145 6.74984 17.677C5.73595 17.2395 4.854 16.6458 4.104 15.8958C3.354 15.1458 2.76025 14.2638 2.32275 13.25C1.88525 12.2361 1.6665 11.1527 1.6665 9.99996C1.6665 8.84718 1.88525 7.76385 2.32275 6.74996C2.76025 5.73607 3.354 4.85413 4.104 4.10413C4.854 3.35413 5.73595 2.76038 6.74984 2.32288C7.76373 1.88538 8.84706 1.66663 9.99984 1.66663C11.1526 1.66663 12.2359 1.88538 13.2498 2.32288C14.2637 2.76038 15.1457 3.35413 15.8957 4.10413C16.6457 4.85413 17.2394 5.73607 17.6769 6.74996C18.1144 7.76385 18.3332 8.84718 18.3332 9.99996C18.3332 11.1527 18.1144 12.2361 17.6769 13.25C17.2394 14.2638 16.6457 15.1458 15.8957 15.8958C15.1457 16.6458 14.2637 17.2395 13.2498 17.677C12.2359 18.1145 11.1526 18.3333 9.99984 18.3333ZM9.99984 16.6666C11.8609 16.6666 13.4373 16.0208 14.729 14.7291C16.0207 13.4375 16.6665 11.8611 16.6665 9.99996C16.6665 8.13885 16.0207 6.56246 14.729 5.27079C13.4373 3.97913 11.8609 3.33329 9.99984 3.33329C8.13873 3.33329 6.56234 3.97913 5.27067 5.27079C3.979 6.56246 3.33317 8.13885 3.33317 9.99996C3.33317 11.8611 3.979 13.4375 5.27067 14.7291C6.56234 16.0208 8.13873 16.6666 9.99984 16.6666Z" fill="#636466"/>
</g>
</svg>
