<svg width="20" height="20" viewBox="0 0 20 20" fill="none" xmlns="http://www.w3.org/2000/svg">
<mask id="mask0_497_212" style="mask-type:alpha" maskUnits="userSpaceOnUse" x="0" y="0" width="20" height="20">
<rect width="20" height="20" fill="#D9D9D9"/>
</mask>
<g mask="url(#mask0_497_212)">
<path d="M4.16667 17.5C3.70833 17.5 3.31597 17.3368 2.98958 17.0104C2.66319 16.684 2.5 16.2917 2.5 15.8333V4.16667C2.5 3.70833 2.66319 3.31597 2.98958 2.98958C3.31597 2.66319 3.70833 2.5 4.16667 2.5H12.6458C12.8681 2.5 13.0799 2.54167 13.2812 2.625C13.4826 2.70833 13.6597 2.82639 13.8125 2.97917L17.0208 6.1875C17.1736 6.34028 17.2917 6.51736 17.375 6.71875C17.4583 6.92014 17.5 7.13194 17.5 7.35417V15.8333C17.5 16.2917 17.3368 16.684 17.0104 17.0104C16.684 17.3368 16.2917 17.5 15.8333 17.5H4.16667ZM4.16667 15.8333H15.8333V7.5H13.3333C13.0972 7.5 12.8993 7.42014 12.7396 7.26042C12.5799 7.10069 12.5 6.90278 12.5 6.66667V4.16667H4.16667V15.8333ZM13.3333 14.1667C13.5694 14.1667 13.7674 14.0868 13.9271 13.9271C14.0868 13.7674 14.1667 13.5694 14.1667 13.3333C14.1667 13.0972 14.0868 12.8993 13.9271 12.7396C13.7674 12.5799 13.5694 12.5 13.3333 12.5H6.66667C6.43056 12.5 6.23264 12.5799 6.07292 12.7396C5.91319 12.8993 5.83333 13.0972 5.83333 13.3333C5.83333 13.5694 5.91319 13.7674 6.07292 13.9271C6.23264 14.0868 6.43056 14.1667 6.66667 14.1667H13.3333ZM9.16667 7.5C9.40278 7.5 9.60069 7.42014 9.76042 7.26042C9.92014 7.10069 10 6.90278 10 6.66667C10 6.43056 9.92014 6.23264 9.76042 6.07292C9.60069 5.91319 9.40278 5.83333 9.16667 5.83333H6.66667C6.43056 5.83333 6.23264 5.91319 6.07292 6.07292C5.91319 6.23264 5.83333 6.43056 5.83333 6.66667C5.83333 6.90278 5.91319 7.10069 6.07292 7.26042C6.23264 7.42014 6.43056 7.5 6.66667 7.5H9.16667ZM13.3333 10.8333C13.5694 10.8333 13.7674 10.7535 13.9271 10.5938C14.0868 10.434 14.1667 10.2361 14.1667 10C14.1667 9.76389 14.0868 9.56597 13.9271 9.40625C13.7674 9.24653 13.5694 9.16667 13.3333 9.16667H6.66667C6.43056 9.16667 6.23264 9.24653 6.07292 9.40625C5.91319 9.56597 5.83333 9.76389 5.83333 10C5.83333 10.2361 5.91319 10.434 6.07292 10.5938C6.23264 10.7535 6.43056 10.8333 6.66667 10.8333H13.3333Z" fill="#1C1B1F"/>
</g>
</svg>
