<svg width="22" height="22" viewBox="0 0 22 22" fill="none" xmlns="http://www.w3.org/2000/svg">
<mask id="mask0_222_403" style="mask-type:alpha" maskUnits="userSpaceOnUse" x="0" y="0" width="22" height="22">
<rect width="22" height="22" fill="#5B5B5B"/>
</mask>
<g mask="url(#mask0_222_403)">
<path d="M16.5 20.1666C15.7361 20.1666 15.0868 19.8993 14.5521 19.3646C14.0174 18.8298 13.75 18.1805 13.75 17.4166C13.75 17.3097 13.7576 17.1989 13.7729 17.0844C13.7882 16.9698 13.8111 16.8666 13.8417 16.775L7.37917 13.0166C7.11944 13.2458 6.82917 13.4253 6.50833 13.5552C6.1875 13.6851 5.85139 13.75 5.5 13.75C4.73611 13.75 4.08681 13.4826 3.55208 12.9479C3.01736 12.4132 2.75 11.7639 2.75 11C2.75 10.2361 3.01736 9.58679 3.55208 9.05206C4.08681 8.51734 4.73611 8.24998 5.5 8.24998C5.85139 8.24998 6.1875 8.31491 6.50833 8.44477C6.82917 8.57463 7.11944 8.75415 7.37917 8.98331L13.8417 5.22498C13.8111 5.13331 13.7882 5.03019 13.7729 4.9156C13.7576 4.80102 13.75 4.69026 13.75 4.58331C13.75 3.81942 14.0174 3.17012 14.5521 2.6354C15.0868 2.10067 15.7361 1.83331 16.5 1.83331C17.2639 1.83331 17.9132 2.10067 18.4479 2.6354C18.9826 3.17012 19.25 3.81942 19.25 4.58331C19.25 5.3472 18.9826 5.99651 18.4479 6.53123C17.9132 7.06595 17.2639 7.33331 16.5 7.33331C16.1486 7.33331 15.8125 7.26838 15.4917 7.13852C15.1708 7.00866 14.8806 6.82915 14.6208 6.59998L8.15833 10.3583C8.18889 10.45 8.21181 10.5531 8.22708 10.6677C8.24236 10.7823 8.25 10.893 8.25 11C8.25 11.1069 8.24236 11.2177 8.22708 11.3323C8.21181 11.4469 8.18889 11.55 8.15833 11.6416L14.6208 15.4C14.8806 15.1708 15.1708 14.9913 15.4917 14.8614C15.8125 14.7316 16.1486 14.6666 16.5 14.6666C17.2639 14.6666 17.9132 14.934 18.4479 15.4687C18.9826 16.0035 19.25 16.6528 19.25 17.4166C19.25 18.1805 18.9826 18.8298 18.4479 19.3646C17.9132 19.8993 17.2639 20.1666 16.5 20.1666Z" fill="#5B5B5B"/>
</g>
</svg>
