<svg width="34" height="34" viewBox="0 0 34 34" fill="none" xmlns="http://www.w3.org/2000/svg">
<path d="M34 16.9995C34 7.61068 26.3888 -0.000488281 17 -0.000488281C7.61117 -0.000488281 0 7.61068 0 16.9995C0 24.9722 5.48862 31.6618 12.8932 33.4989V22.1944H9.38767V16.9995H12.8932V14.761C12.8932 8.97476 15.5117 6.29284 21.1925 6.29284C22.2694 6.29284 24.1278 6.50398 24.8881 6.71519V11.4245C24.4868 11.3822 23.7899 11.3611 22.9241 11.3611C20.1366 11.3611 19.0595 12.417 19.0595 15.1623V16.9995H24.6123L23.6584 22.1944H19.0595V33.875C27.477 32.8583 34 25.6911 34 16.9995Z" fill="#0866FF"/>
<path d="M23.6584 22.1949L24.6124 17H19.0595V15.1627C19.0595 12.4174 20.1365 11.3616 22.9241 11.3616C23.7899 11.3616 24.4868 11.3827 24.888 11.4249V6.71568C24.1278 6.50448 22.2694 6.29327 21.1924 6.29327C15.5118 6.29327 12.8932 8.97526 12.8932 14.7615V17H9.38763V22.1949H12.8932V33.4994C14.2085 33.8256 15.5838 34 17 34C17.6972 34 18.3843 33.957 19.0595 33.8755V22.1949H23.6584Z" fill="white"/>
</svg>
