<svg width="32" height="32" viewBox="0 0 32 32" fill="none" xmlns="http://www.w3.org/2000/svg">
<g clip-path="url(#clip0_514_554)">
<path d="M16.0052 0C9.32534 0 7.37173 0.00689376 6.99199 0.0383999C5.62118 0.152378 4.76818 0.368277 3.83886 0.831073C3.1227 1.18681 2.55787 1.59915 2.00044 2.17717C0.985249 3.23128 0.369979 4.52813 0.147247 6.06968C0.0389651 6.81805 0.00745866 6.97067 0.00106067 10.7933C-0.00139451 12.0675 0.00106067 13.7444 0.00106067 15.9937C0.00106067 22.67 0.00843827 24.6221 0.0404403 25.0013C0.15119 26.3355 0.360376 27.175 0.803373 28.0932C1.64999 29.8509 3.2669 31.1704 5.17178 31.6627C5.83135 31.8326 6.55983 31.9261 7.49504 31.9705C7.89128 31.9877 11.9299 32 15.971 32C20.0121 32 24.0532 31.9951 24.4395 31.9754C25.5224 31.9244 26.1512 31.84 26.8465 31.6603C28.7637 31.1655 30.3511 29.8657 31.2149 28.0834C31.6493 27.1873 31.8695 26.3158 31.9692 25.0512C31.9909 24.7755 32 20.3796 32 15.9895C32 11.5988 31.9901 7.21094 31.9685 6.93522C31.8676 5.6502 31.6473 4.78613 31.1989 3.87281C30.831 3.12518 30.4224 2.56685 29.8293 1.99599C28.7708 0.984697 27.4763 0.369257 25.9337 0.146718C25.1862 0.0386419 25.0373 0.00663988 21.2128 0H16.0052Z" fill="url(#paint0_radial_514_554)"/>
<path d="M16.0052 0C9.32534 0 7.37173 0.00689376 6.99199 0.0383999C5.62118 0.152378 4.76818 0.368277 3.83886 0.831073C3.1227 1.18681 2.55787 1.59915 2.00044 2.17717C0.985249 3.23128 0.369979 4.52813 0.147247 6.06968C0.0389651 6.81805 0.00745866 6.97067 0.00106067 10.7933C-0.00139451 12.0675 0.00106067 13.7444 0.00106067 15.9937C0.00106067 22.67 0.00843827 24.6221 0.0404403 25.0013C0.15119 26.3355 0.360376 27.175 0.803373 28.0932C1.64999 29.8509 3.2669 31.1704 5.17178 31.6627C5.83135 31.8326 6.55983 31.9261 7.49504 31.9705C7.89128 31.9877 11.9299 32 15.971 32C20.0121 32 24.0532 31.9951 24.4395 31.9754C25.5224 31.9244 26.1512 31.84 26.8465 31.6603C28.7637 31.1655 30.3511 29.8657 31.2149 28.0834C31.6493 27.1873 31.8695 26.3158 31.9692 25.0512C31.9909 24.7755 32 20.3796 32 15.9895C32 11.5988 31.9901 7.21094 31.9685 6.93522C31.8676 5.6502 31.6473 4.78613 31.1989 3.87281C30.831 3.12518 30.4224 2.56685 29.8293 1.99599C28.7708 0.984697 27.4763 0.369257 25.9337 0.146718C25.1862 0.0386419 25.0373 0.00663988 21.2128 0H16.0052Z" fill="url(#paint1_radial_514_554)"/>
<path d="M16.0052 0C9.32534 0 7.37173 0.00689376 6.99199 0.0383999C5.62118 0.152378 4.76818 0.368277 3.83886 0.831073C3.1227 1.18681 2.55787 1.59915 2.00044 2.17717C0.985249 3.23128 0.369979 4.52813 0.147247 6.06968C0.0389651 6.81805 0.00745866 6.97067 0.00106067 10.7933C-0.00139451 12.0675 0.00106067 13.7444 0.00106067 15.9937C0.00106067 22.67 0.00843827 24.6221 0.0404403 25.0013C0.15119 26.3355 0.360376 27.175 0.803373 28.0932C1.64999 29.8509 3.2669 31.1704 5.17178 31.6627C5.83135 31.8326 6.55983 31.9261 7.49504 31.9705C7.89128 31.9877 11.9299 32 15.971 32C20.0121 32 24.0532 31.9951 24.4395 31.9754C25.5224 31.9244 26.1512 31.84 26.8465 31.6603C28.7637 31.1655 30.3511 29.8657 31.2149 28.0834C31.6493 27.1873 31.8695 26.3158 31.9692 25.0512C31.9909 24.7755 32 20.3796 32 15.9895C32 11.5988 31.9901 7.21094 31.9685 6.93522C31.8676 5.6502 31.6473 4.78613 31.1989 3.87281C30.831 3.12518 30.4224 2.56685 29.8293 1.99599C28.7708 0.984697 27.4763 0.369257 25.9337 0.146718C25.1862 0.0386419 25.0373 0.00663988 21.2128 0H16.0052Z" fill="url(#paint2_radial_514_554)"/>
<path d="M16.0052 0C9.32534 0 7.37173 0.00689376 6.99199 0.0383999C5.62118 0.152378 4.76818 0.368277 3.83886 0.831073C3.1227 1.18681 2.55787 1.59915 2.00044 2.17717C0.985249 3.23128 0.369979 4.52813 0.147247 6.06968C0.0389651 6.81805 0.00745866 6.97067 0.00106067 10.7933C-0.00139451 12.0675 0.00106067 13.7444 0.00106067 15.9937C0.00106067 22.67 0.00843827 24.6221 0.0404403 25.0013C0.15119 26.3355 0.360376 27.175 0.803373 28.0932C1.64999 29.8509 3.2669 31.1704 5.17178 31.6627C5.83135 31.8326 6.55983 31.9261 7.49504 31.9705C7.89128 31.9877 11.9299 32 15.971 32C20.0121 32 24.0532 31.9951 24.4395 31.9754C25.5224 31.9244 26.1512 31.84 26.8465 31.6603C28.7637 31.1655 30.3511 29.8657 31.2149 28.0834C31.6493 27.1873 31.8695 26.3158 31.9692 25.0512C31.9909 24.7755 32 20.3796 32 15.9895C32 11.5988 31.9901 7.21094 31.9685 6.93522C31.8676 5.6502 31.6473 4.78613 31.1989 3.87281C30.831 3.12518 30.4224 2.56685 29.8293 1.99599C28.7708 0.984697 27.4763 0.369257 25.9337 0.146718C25.1862 0.0386419 25.0373 0.00663988 21.2128 0H16.0052Z" fill="url(#paint3_radial_514_554)"/>
<path d="M16.0065 4.1084C12.7752 4.1084 12.3697 4.12251 11.1006 4.18023C9.83398 4.23818 8.96941 4.43857 8.2129 4.73258C7.43037 5.03624 6.76656 5.44245 6.10525 6.10352C5.44344 6.76436 5.03692 7.42766 4.73204 8.20936C4.43707 8.96556 4.23629 9.82973 4.17929 11.0949C4.12253 12.3631 4.10765 12.7685 4.10765 15.9974C4.10765 19.2263 4.12203 19.6302 4.17953 20.8984C4.23779 22.1641 4.43831 23.028 4.73228 23.784C5.03642 24.5659 5.44293 25.2292 6.1045 25.89C6.76558 26.5514 7.42938 26.9586 8.21141 27.2622C8.9684 27.5562 9.83324 27.7566 11.0996 27.8146C12.3687 27.8723 12.774 27.8864 16.005 27.8864C19.2365 27.8864 19.6408 27.8723 20.9099 27.8146C22.1765 27.7566 23.0421 27.5562 23.7991 27.2622C24.5813 26.9586 25.2442 26.5514 25.9052 25.89C26.567 25.2292 26.9736 24.5659 27.2784 23.7842C27.5709 23.028 27.7717 22.1638 27.8312 20.8986C27.8882 19.6305 27.9031 19.2263 27.9031 15.9974C27.9031 12.7685 27.8882 12.3633 27.8312 11.0952C27.7717 9.82948 27.5709 8.96556 27.2784 8.20962C26.9736 7.42766 26.567 6.76435 25.9052 6.10352C25.2434 5.44219 24.5816 5.03599 23.7983 4.73257C23.0398 4.43857 22.1748 4.23818 20.9081 4.18023C19.639 4.12251 19.235 4.1084 16.0028 4.1084H16.0065ZM14.9391 6.2509C15.2559 6.2504 15.6094 6.2509 16.0065 6.2509C19.1832 6.2509 19.5597 6.26229 20.8142 6.31926C21.9742 6.37227 22.6038 6.56595 23.0232 6.72868C23.5785 6.94417 23.9743 7.20177 24.3905 7.61788C24.8069 8.034 25.0647 8.4303 25.2808 8.98511C25.4437 9.4037 25.6378 10.0328 25.6906 11.192C25.7476 12.4453 25.76 12.8218 25.76 15.9947C25.76 19.1675 25.7476 19.5441 25.6906 20.7973C25.6375 21.9565 25.4437 22.5856 25.2808 23.0042C25.0652 23.5591 24.8069 23.9541 24.3905 24.37C23.9741 24.7861 23.5787 25.0437 23.0232 25.2592C22.6043 25.4227 21.9742 25.6159 20.8142 25.6689C19.56 25.7258 19.1832 25.7382 16.0065 25.7382C12.8295 25.7382 12.453 25.7258 11.1988 25.6689C10.0387 25.6154 9.40914 25.4217 8.98948 25.2589C8.43425 25.0435 8.03765 24.7859 7.62123 24.3697C7.20481 23.9536 6.94703 23.5583 6.73087 23.0032C6.56802 22.5847 6.37394 21.9555 6.32115 20.7964C6.26413 19.543 6.25273 19.1666 6.25273 15.9917C6.25273 12.8169 6.26413 12.4423 6.32115 11.189C6.37419 10.0299 6.56802 9.40074 6.73087 8.98166C6.94652 8.42683 7.20481 8.03053 7.62123 7.61442C8.03765 7.1983 8.43425 6.94071 8.98948 6.72473C9.40888 6.56125 10.0387 6.36806 11.1988 6.3148C12.2963 6.26526 12.7217 6.2504 14.9391 6.24791L14.9391 6.2509ZM22.3575 8.22496C21.5692 8.22496 20.9297 8.86326 20.9297 9.65115C20.9297 10.4388 21.5692 11.0778 22.3575 11.0778C23.1457 11.0778 23.7852 10.4388 23.7852 9.65115C23.7852 8.8635 23.1457 8.22448 22.3574 8.22448L22.3575 8.22496ZM16.0065 9.8919C12.6322 9.8919 9.89645 12.6256 9.89645 15.9974C9.89645 19.3692 12.6322 22.1017 16.0065 22.1017C19.3808 22.1017 22.1155 19.3692 22.1155 15.9974C22.1155 12.6256 19.3805 9.8919 16.0062 9.8919H16.0065ZM16.0065 12.0344C18.1967 12.0344 19.9724 13.8086 19.9724 15.9974C19.9724 18.186 18.1967 19.9604 16.0065 19.9604C13.816 19.9604 12.0405 18.186 12.0405 15.9974C12.0405 13.8086 13.816 12.0344 16.0065 12.0344Z" fill="white"/>
</g>
<defs>
<radialGradient id="paint0_radial_514_554" cx="0" cy="0" r="1" gradientUnits="userSpaceOnUse" gradientTransform="translate(30.9667 14.9988) rotate(164.25) scale(20.4462 14.7305)">
<stop stop-color="#FF005F"/>
<stop offset="1" stop-color="#FC01D8"/>
</radialGradient>
<radialGradient id="paint1_radial_514_554" cx="0" cy="0" r="1" gradientUnits="userSpaceOnUse" gradientTransform="translate(8.49973 34.4647) rotate(-90) scale(25.543 27.1006)">
<stop stop-color="#FFCC00"/>
<stop offset="0.1242" stop-color="#FFCC00"/>
<stop offset="0.5672" stop-color="#FE4A05"/>
<stop offset="0.6942" stop-color="#FF0F3F"/>
<stop offset="1" stop-color="#FE0657" stop-opacity="0"/>
</radialGradient>
<radialGradient id="paint2_radial_514_554" cx="0" cy="0" r="1" gradientUnits="userSpaceOnUse" gradientTransform="translate(16.8086 31.5487) rotate(-59.8703) scale(10.5623 13.7509)">
<stop stop-color="#FFCC00"/>
<stop offset="1" stop-color="#FFCC00" stop-opacity="0"/>
</radialGradient>
<radialGradient id="paint3_radial_514_554" cx="0" cy="0" r="1" gradientUnits="userSpaceOnUse" gradientTransform="translate(4.34168 1.30303) rotate(164.274) scale(20.2194 6.88873)">
<stop stop-color="#780CFF"/>
<stop offset="1" stop-color="#820BFF" stop-opacity="0"/>
</radialGradient>
<clipPath id="clip0_514_554">
<rect width="32" height="32" fill="white"/>
</clipPath>
</defs>
</svg>
