<svg width="43" height="30" viewBox="0 0 43 30" fill="none" xmlns="http://www.w3.org/2000/svg">
<path d="M41.9612 4.6845C41.4684 2.84055 40.016 1.38852 38.172 0.895697C34.8298 0 21.4283 0 21.4283 0C21.4283 0 8.02669 0 4.6845 0.895697C2.84054 1.38852 1.38817 2.84055 0.895344 4.6845C6.72865e-07 8.02669 0 15 0 15C0 15 6.72865e-07 21.9733 0.895344 25.3151C1.38817 27.1591 2.84054 28.6115 4.6845 29.1043C8.02669 30 21.4283 30 21.4283 30C21.4283 30 34.8298 30 38.172 29.1043C40.016 28.6115 41.4684 27.1591 41.9612 25.3151C42.8569 21.9733 42.8569 15 42.8569 15C42.8569 15 42.8569 8.02669 41.9612 4.6845Z" fill="#FF0000"/>
<path d="M15.1425 21.4297L26.2768 15.0011L15.1425 8.57244V21.4297Z" fill="white"/>
</svg>
