<svg width="33" height="40" viewBox="0 0 33 40" fill="none" xmlns="http://www.w3.org/2000/svg">
<g clip-path="url(#clip0_663_502)">
<path d="M16.2082 0L15.6038 0.318863C15.2009 0.531433 14.8639 0.703699 14.5929 0.83564C14.3218 0.96758 14.0471 1.09953 13.7687 1.23147C13.4903 1.36341 13.179 1.51002 12.8347 1.67128C12.4904 1.83254 12.3054 1.91507 12.2798 1.91873C12.2541 1.9224 12.049 2.01036 11.6644 2.18262C11.2798 2.35487 10.8678 2.52525 10.4282 2.69384C9.98866 2.86243 9.69572 2.97238 9.5492 3.02369C9.40269 3.075 9.2488 3.12632 9.08764 3.17763C8.92647 3.22894 8.70299 3.30224 8.41729 3.39753C8.13159 3.49282 7.79093 3.59545 7.39534 3.7054C6.99975 3.81535 6.5309 3.93264 5.98879 4.05725C5.44669 4.18186 5.01085 4.27349 4.6812 4.33213C4.35154 4.39077 3.80575 4.48606 3.04388 4.61801C2.282 4.74995 1.71431 4.84524 1.3407 4.90388C0.967087 4.96252 0.67401 5.01017 0.461564 5.04682C0.249118 5.08347 0.11903 5.11457 0.0714116 5.14022L0 5.17876V5.93744C0 6.44321 0.0256899 7.30441 0.0769701 8.5212C0.128248 9.73798 0.168491 10.614 0.197795 11.1491C0.227096 11.6842 0.252789 12.19 0.274765 12.6664C0.296743 13.1429 0.344324 13.8501 0.417581 14.7884C0.490837 15.7266 0.538421 16.2874 0.560397 16.4706C0.582375 16.6539 0.651976 17.0387 0.769187 17.6251C0.886398 18.2115 0.978019 18.6587 1.04395 18.9666C1.10988 19.2744 1.22339 19.7435 1.38456 20.3738C1.54572 21.0042 1.69227 21.5393 1.82413 21.9791C1.95599 22.4189 2.08785 22.8331 2.21972 23.2216C2.35158 23.6101 2.4542 23.8997 2.52746 24.0902C2.60072 24.2808 2.70322 24.541 2.83509 24.8709C2.96695 25.2008 3.03288 25.3694 3.03288 25.3767C3.03288 25.384 3.09881 25.5416 3.23067 25.8495C3.36254 26.1573 3.46516 26.3881 3.53842 26.542C3.61168 26.696 3.69584 26.8609 3.79107 27.0368C3.88631 27.2128 4.02917 27.473 4.21964 27.8175C4.41011 28.162 4.52919 28.3728 4.57681 28.4498C4.60572 28.4965 4.69021 28.6387 4.75696 28.7503C-0.0752295 14.6522 15.2679 8.70391 26.754 11.3157C21.2723 13.3575 25.9673 25.1979 9.01913 28.3647C8.73061 19.185 16.3402 16.4437 16.3402 16.4437C13.4033 17.5288 7.36016 20.8172 7.88334 31.5117C7.93574 32.5828 8.6094 34.1075 9.36526 34.8682C9.37709 34.8801 9.38895 34.892 9.40082 34.9039C9.63158 35.1348 9.76155 35.2648 9.79085 35.2942C9.82015 35.3235 9.96492 35.4536 10.225 35.6845C10.485 35.9154 10.6535 36.0619 10.7304 36.1242C10.8073 36.1865 10.9831 36.3405 11.2578 36.586C11.5325 36.8316 11.7413 37.0149 11.8842 37.1358C12.027 37.2567 12.1956 37.3997 12.3897 37.5646C12.5838 37.7295 12.7395 37.8597 12.8567 37.955C12.9739 38.0503 13.0783 38.1327 13.1699 38.2023C13.2615 38.272 13.3494 38.3343 13.4337 38.3893C13.5179 38.4442 13.6717 38.5395 13.8951 38.6751C14.1185 38.8107 14.2688 38.9024 14.3457 38.95C14.4226 38.9977 14.5361 39.071 14.6863 39.1699C14.8365 39.2689 14.9298 39.333 14.9665 39.3623C15.0031 39.3916 15.1423 39.4686 15.3841 39.5932C15.6258 39.7178 15.798 39.8057 15.9006 39.8571C16.0031 39.9084 16.0983 39.945 16.1862 39.967L16.3182 40L16.439 39.956C16.5196 39.9267 16.6624 39.8644 16.8676 39.7691C17.0727 39.6738 17.2485 39.5895 17.395 39.5162C17.5415 39.4429 17.6368 39.3916 17.6807 39.3623C17.7247 39.333 17.7943 39.2853 17.8895 39.2193C17.9848 39.1534 18.0763 39.0948 18.1642 39.0435C18.2521 38.9922 18.3309 38.9427 18.4005 38.895C18.4701 38.8474 18.6166 38.7558 18.8401 38.6202C19.0635 38.4845 19.2173 38.3893 19.3015 38.3343C19.3857 38.2793 19.4737 38.217 19.5653 38.1474C19.6568 38.0777 19.7905 37.9697 19.9663 37.8231C20.1421 37.6765 20.2795 37.5609 20.3784 37.4766C20.4773 37.3924 20.5653 37.319 20.6422 37.2567C20.7191 37.1944 20.8802 37.0552 21.1256 36.8389C21.371 36.6227 21.5249 36.4871 21.5872 36.4321C21.6494 36.3771 21.8216 36.2232 22.1036 35.9703C22.3856 35.7174 22.5652 35.5599 22.6421 35.4976C22.719 35.4353 22.8747 35.2868 23.1091 35.0523C23.3435 34.8177 23.6146 34.5355 23.9223 34.2056C24.23 33.8758 24.4974 33.5826 24.7245 33.326C24.9516 33.0695 25.0999 32.8954 25.1695 32.8038C25.2391 32.7122 25.3233 32.6022 25.4222 32.4739C25.5211 32.3457 25.6126 32.221 25.6969 32.1001C25.7811 31.9791 25.8691 31.8582 25.9606 31.7372C26.0522 31.6163 26.1218 31.5173 26.1694 31.4404C26.217 31.3634 26.283 31.2681 26.3672 31.1545C26.4515 31.0409 26.5394 30.9163 26.631 30.7807C26.7226 30.6451 26.803 30.5278 26.8726 30.4288C26.9422 30.3299 27.0338 30.1906 27.1474 30.011C27.2609 29.8314 27.3452 29.6995 27.4002 29.6152C27.4551 29.5309 27.5723 29.3331 27.7518 29.0215C27.9313 28.71 28.0448 28.5158 28.0924 28.4388C28.14 28.3618 28.2792 28.1163 28.51 27.7021C28.7407 27.288 28.8745 27.0478 28.9111 26.9819C28.9477 26.9159 29.0576 26.6813 29.2407 26.2782C29.4239 25.875 29.5741 25.5306 29.6913 25.2447C29.8085 24.9589 29.9073 24.7133 29.9879 24.5081C30.0685 24.3028 30.1711 24.0279 30.2957 23.6834C30.4202 23.3389 30.5117 23.075 30.5703 22.8918C30.6289 22.7085 30.6803 22.5546 30.7242 22.4299C30.7682 22.3053 30.8011 22.2027 30.8231 22.1221C30.8451 22.0415 30.911 21.8069 31.0209 21.4184C31.1308 21.0299 31.226 20.667 31.3066 20.3299C31.3872 19.9927 31.4787 19.6006 31.5813 19.1535C31.6838 18.7064 31.7791 18.2629 31.867 17.8231C31.9549 17.3833 32.0319 16.9178 32.0978 16.4267C32.1637 15.9355 32.2223 15.3454 32.2736 14.6564C32.3249 13.9674 32.3945 12.758 32.4824 11.0281C32.5703 9.29823 32.6252 7.88712 32.6472 6.79495L32.6802 5.15677L32.6747 5.15121C32.6711 5.14755 32.4091 5.09446 31.889 4.99184C31.3689 4.88922 31.1051 4.83791 31.0978 4.83791C31.0905 4.83791 30.8158 4.79393 30.2737 4.70597C29.7316 4.61801 29.3909 4.56303 29.2517 4.54104C29.1125 4.51905 28.7682 4.45674 28.2188 4.35412C27.6693 4.2515 27.3433 4.18919 27.2408 4.1672C27.1382 4.14521 26.9112 4.0939 26.5596 4.01327C26.2079 3.93264 25.8452 3.84101 25.4716 3.73839C25.098 3.63577 24.7904 3.5478 24.5486 3.4745C24.3069 3.4012 24.1091 3.33889 23.9553 3.28758C23.8014 3.23627 23.6732 3.19229 23.5707 3.15564C23.4681 3.11899 23.2226 3.03102 22.8343 2.89175C22.4461 2.75248 22.1495 2.64252 21.9443 2.56189C21.7392 2.48126 21.4461 2.35665 21.0652 2.18806C20.6843 2.01946 20.481 1.93339 20.4554 1.92973C20.4297 1.92606 20.0342 1.7428 19.2686 1.37996C18.5031 1.01713 18.0544 0.802652 17.9225 0.736682C17.7906 0.670712 17.5196 0.531433 17.1093 0.318863L16.494 0H16.3511H16.2082Z" fill="white"/>
</g>
<defs>
<clipPath id="clip0_663_502">
<rect width="32.68" height="40" fill="white"/>
</clipPath>
</defs>
</svg>
