<svg width="32" height="32" viewBox="0 0 32 32" fill="none" xmlns="http://www.w3.org/2000/svg">
<mask id="mask0_907_11414" style="mask-type:alpha" maskUnits="userSpaceOnUse" x="0" y="0" width="32" height="32">
<rect width="32" height="32" fill="#D9D9D9"/>
</mask>
<g mask="url(#mask0_907_11414)">
<path d="M5.33333 24C4.95556 24 4.63889 23.8722 4.38333 23.6167C4.12778 23.3611 4 23.0444 4 22.6667C4 22.2889 4.12778 21.9722 4.38333 21.7167C4.63889 21.4611 4.95556 21.3333 5.33333 21.3333H26.6667C27.0444 21.3333 27.3611 21.4611 27.6167 21.7167C27.8722 21.9722 28 22.2889 28 22.6667C28 23.0444 27.8722 23.3611 27.6167 23.6167C27.3611 23.8722 27.0444 24 26.6667 24H5.33333ZM5.33333 17.3333C4.95556 17.3333 4.63889 17.2056 4.38333 16.95C4.12778 16.6944 4 16.3778 4 16C4 15.6222 4.12778 15.3056 4.38333 15.05C4.63889 14.7944 4.95556 14.6667 5.33333 14.6667H26.6667C27.0444 14.6667 27.3611 14.7944 27.6167 15.05C27.8722 15.3056 28 15.6222 28 16C28 16.3778 27.8722 16.6944 27.6167 16.95C27.3611 17.2056 27.0444 17.3333 26.6667 17.3333H5.33333ZM5.33333 10.6667C4.95556 10.6667 4.63889 10.5389 4.38333 10.2833C4.12778 10.0278 4 9.71111 4 9.33333C4 8.95556 4.12778 8.63889 4.38333 8.38333C4.63889 8.12778 4.95556 8 5.33333 8H26.6667C27.0444 8 27.3611 8.12778 27.6167 8.38333C27.8722 8.63889 28 8.95556 28 9.33333C28 9.71111 27.8722 10.0278 27.6167 10.2833C27.3611 10.5389 27.0444 10.6667 26.6667 10.6667H5.33333Z" fill="#1C1B1F"/>
</g>
</svg>
