<svg width="20" height="20" viewBox="0 0 20 20" fill="none" xmlns="http://www.w3.org/2000/svg">
<mask id="mask0_497_200" style="mask-type:alpha" maskUnits="userSpaceOnUse" x="0" y="0" width="20" height="20">
<rect width="20" height="20" fill="#D9D9D9"/>
</mask>
<g mask="url(#mask0_497_200)">
<path d="M3.33398 15.8333V14.3333C3.33398 13.8611 3.45551 13.4271 3.69857 13.0313C3.94162 12.6354 4.26454 12.3333 4.66732 12.125C5.52843 11.6945 6.40343 11.3715 7.29232 11.1563C8.18121 10.941 9.08398 10.8333 10.0007 10.8333C10.5145 10.8333 11.0215 10.8646 11.5215 10.9271C12.0215 10.9896 12.5215 11.0903 13.0215 11.2292L11.6257 12.6458C11.3479 12.6042 11.077 12.5695 10.8132 12.5417C10.5493 12.5139 10.2784 12.5 10.0007 12.5C9.22287 12.5 8.45204 12.5938 7.68815 12.7813C6.92426 12.9688 6.16732 13.25 5.41732 13.625C5.29232 13.6945 5.19162 13.7917 5.11523 13.9167C5.03885 14.0417 5.00065 14.1806 5.00065 14.3333V15H10.0007V16.6667H4.16732C3.93121 16.6667 3.73329 16.5868 3.57357 16.4271C3.41385 16.2674 3.33398 16.0695 3.33398 15.8333ZM11.6673 16.6667V15.625C11.6673 15.4028 11.7125 15.191 11.8027 14.9896C11.893 14.7882 12.0145 14.6111 12.1673 14.4583L16.2715 10.3542C16.3965 10.2292 16.5354 10.1389 16.6882 10.0833C16.8409 10.0278 16.9937 10 17.1465 10C17.3132 10 17.4729 10.0313 17.6257 10.0938C17.7784 10.1563 17.9173 10.25 18.0423 10.375L18.8132 11.1458C18.9243 11.2708 19.0111 11.4097 19.0736 11.5625C19.1361 11.7153 19.1673 11.8681 19.1673 12.0208C19.1673 12.1736 19.1395 12.3299 19.084 12.4896C19.0284 12.6493 18.9382 12.7917 18.8132 12.9167L14.709 17.0208C14.5562 17.1736 14.3791 17.2917 14.1777 17.375C13.9763 17.4583 13.7645 17.5 13.5423 17.5H12.5007C12.2645 17.5 12.0666 17.4201 11.9069 17.2604C11.7472 17.1007 11.6673 16.9028 11.6673 16.6667ZM12.9173 16.25H13.709L16.2298 13.7083L15.8548 13.3125L15.459 12.9375L12.9173 15.4583V16.25ZM15.8548 13.3125L15.459 12.9375L16.2298 13.7083L15.8548 13.3125ZM10.0007 10C9.08398 10 8.29926 9.67362 7.64648 9.02084C6.99371 8.36807 6.66732 7.58334 6.66732 6.66668C6.66732 5.75001 6.99371 4.96529 7.64648 4.31251C8.29926 3.65973 9.08398 3.33334 10.0007 3.33334C10.9173 3.33334 11.702 3.65973 12.3548 4.31251C13.0076 4.96529 13.334 5.75001 13.334 6.66668C13.334 7.58334 13.0076 8.36807 12.3548 9.02084C11.702 9.67362 10.9173 10 10.0007 10ZM10.0007 8.33334C10.459 8.33334 10.8513 8.17015 11.1777 7.84376C11.5041 7.51737 11.6673 7.12501 11.6673 6.66668C11.6673 6.20834 11.5041 5.81598 11.1777 5.48959C10.8513 5.1632 10.459 5.00001 10.0007 5.00001C9.54232 5.00001 9.14996 5.1632 8.82357 5.48959C8.49718 5.81598 8.33398 6.20834 8.33398 6.66668C8.33398 7.12501 8.49718 7.51737 8.82357 7.84376C9.14996 8.17015 9.54232 8.33334 10.0007 8.33334Z" fill="#222222"/>
</g>
</svg>
