<svg width="24" height="26" viewBox="0 0 24 26" fill="none" xmlns="http://www.w3.org/2000/svg">
<rect y="25.2" width="24.4" height="24" rx="12" transform="rotate(-90 0 25.2)" fill="#114232"/>
<path d="M12.9818 10.1273V18.2364C12.9818 18.503 12.8879 18.7303 12.7 18.9182C12.5121 19.1061 12.2848 19.2 12.0182 19.2C11.7515 19.2 11.5242 19.1061 11.3364 18.9182C11.1485 18.7303 11.0545 18.503 11.0545 18.2364V10.1273L7.67273 13.5091C7.47879 13.703 7.24848 13.8 6.98182 13.8C6.71515 13.8 6.48485 13.703 6.29091 13.5091C6.09697 13.3152 6 13.0849 6 12.8182C6 12.5515 6.09697 12.3212 6.29091 12.1273L11.3455 7.07274C11.4424 6.97577 11.5455 6.90607 11.6545 6.86365C11.7636 6.82122 11.8848 6.80001 12.0182 6.80001C12.1515 6.80001 12.2727 6.82122 12.3818 6.86365C12.4909 6.90607 12.5939 6.97577 12.6909 7.07274L17.7091 12.0909C17.903 12.2849 18 12.5152 18 12.7818C18 13.0485 17.903 13.2788 17.7091 13.4727C17.5152 13.6667 17.2848 13.7636 17.0182 13.7636C16.7515 13.7636 16.5212 13.6667 16.3273 13.4727L12.9818 10.1273Z" fill="white"/>
</svg>
