<svg width="10" height="5" viewBox="0 0 10 5" fill="none" xmlns="http://www.w3.org/2000/svg">
<path d="M4.47495 4.475L0.849951 0.85C0.799951 0.8 0.762451 0.745833 0.737451 0.6875C0.712451 0.629167 0.699951 0.566667 0.699951 0.5C0.699951 0.366667 0.745785 0.25 0.837451 0.15C0.929118 0.05 1.04995 0 1.19995 0H8.79995C8.94995 0 9.07079 0.05 9.16245 0.15C9.25412 0.25 9.29995 0.366667 9.29995 0.5C9.29995 0.533333 9.24995 0.65 9.14995 0.85L5.52495 4.475C5.44162 4.55833 5.35828 4.61667 5.27495 4.65C5.19162 4.68333 5.09995 4.7 4.99995 4.7C4.89995 4.7 4.80828 4.68333 4.72495 4.65C4.64162 4.61667 4.55828 4.55833 4.47495 4.475Z" fill="#222222"/>
</svg>
