<svg width="21" height="13" viewBox="0 0 21 13" fill="none" xmlns="http://www.w3.org/2000/svg">
<path d="M10.7863 12.5C11.0305 12.5 11.2595 12.4618 11.4733 12.3855C11.687 12.3092 11.8855 12.1794 12.0687 11.9962L20.4962 3.5687C20.8321 3.23282 21 2.80534 21 2.28626C21 1.76718 20.8321 1.33969 20.4962 1.00382C20.1603 0.667939 19.7328 0.5 19.2137 0.5C18.6947 0.5 18.2672 0.667939 17.9313 1.00382L10.7863 8.14886L3.64122 1.00382C3.30534 0.667939 2.87786 0.5 2.35878 0.5C1.83969 0.5 1.41221 0.667939 1.07634 1.00382C0.740459 1.33969 0.572519 1.76718 0.572519 2.28626C0.572519 2.80534 0.740459 3.23282 1.07634 3.5687L9.50382 11.9962C9.68702 12.1794 9.8855 12.3092 10.0992 12.3855C10.313 12.4618 10.542 12.5 10.7863 12.5Z" fill="#FCDC2A"/>
</svg>
