<svg width="48" height="48" viewBox="0 0 48 48" fill="none" xmlns="http://www.w3.org/2000/svg">
<path d="M24 47.3333C20.7722 47.3333 17.7389 46.7208 14.9 45.4958C12.0611 44.2708 9.59166 42.6083 7.49166 40.5083C5.39166 38.4083 3.72916 35.9389 2.50416 33.1C1.27916 30.2611 0.666656 27.2277 0.666656 24C0.666656 20.7722 1.27916 17.7388 2.50416 14.9C3.72916 12.0611 5.39166 9.59163 7.49166 7.49163C9.59166 5.39163 12.0611 3.72913 14.9 2.50413C17.7389 1.27913 20.7722 0.666626 24 0.666626C27.2278 0.666626 30.2611 1.27913 33.1 2.50413C35.9389 3.72913 38.4083 5.39163 40.5083 7.49163C42.6083 9.59163 44.2708 12.0611 45.4958 14.9C46.7208 17.7388 47.3333 20.7722 47.3333 24C47.3333 27.2277 46.7208 30.2611 45.4958 33.1C44.2708 35.9389 42.6083 38.4083 40.5083 40.5083C38.4083 42.6083 35.9389 44.2708 33.1 45.4958C30.2611 46.7208 27.2278 47.3333 24 47.3333ZM24 42.6666C29.2111 42.6666 33.625 40.8583 37.2417 37.2416C40.8583 33.625 42.6667 29.2111 42.6667 24C42.6667 18.7888 40.8583 14.375 37.2417 10.7583C33.625 7.14163 29.2111 5.33329 24 5.33329C18.7889 5.33329 14.375 7.14163 10.7583 10.7583C7.14166 14.375 5.33332 18.7888 5.33332 24C5.33332 29.2111 7.14166 33.625 10.7583 37.2416C14.375 40.8583 18.7889 42.6666 24 42.6666ZM24 38C20.1111 38 16.8055 36.6389 14.0833 33.9166C11.3611 31.1944 9.99999 27.8888 9.99999 24C9.99999 20.1111 11.3611 16.8055 14.0833 14.0833C16.8055 11.3611 20.1111 9.99996 24 9.99996C27.8889 9.99996 31.1944 11.3611 33.9167 14.0833C36.6389 16.8055 38 20.1111 38 24C38 27.8888 36.6389 31.1944 33.9167 33.9166C31.1944 36.6389 27.8889 38 24 38ZM24 33.3333C26.5667 33.3333 28.7639 32.4194 30.5917 30.5916C32.4194 28.7638 33.3333 26.5666 33.3333 24C33.3333 21.4333 32.4194 19.2361 30.5917 17.4083C28.7639 15.5805 26.5667 14.6666 24 14.6666C21.4333 14.6666 19.2361 15.5805 17.4083 17.4083C15.5805 19.2361 14.6667 21.4333 14.6667 24C14.6667 26.5666 15.5805 28.7638 17.4083 30.5916C19.2361 32.4194 21.4333 33.3333 24 33.3333ZM24 28.6666C22.7167 28.6666 21.618 28.2097 20.7042 27.2958C19.7903 26.3819 19.3333 25.2833 19.3333 24C19.3333 22.7166 19.7903 21.618 20.7042 20.7041C21.618 19.7902 22.7167 19.3333 24 19.3333C25.2833 19.3333 26.3819 19.7902 27.2958 20.7041C28.2097 21.618 28.6667 22.7166 28.6667 24C28.6667 25.2833 28.2097 26.3819 27.2958 27.2958C26.3819 28.2097 25.2833 28.6666 24 28.6666Z" fill="#FCDC2A"/>
</svg>
