<svg width="7" height="12" viewBox="0 0 7 12" fill="none" xmlns="http://www.w3.org/2000/svg">
<path d="M4.5998 6L0.699805 2.1C0.516471 1.91667 0.424805 1.68334 0.424805 1.4C0.424805 1.11667 0.516471 0.883336 0.699805 0.700003C0.883138 0.51667 1.11647 0.425003 1.3998 0.425003C1.68314 0.425003 1.91647 0.51667 2.0998 0.700003L6.6998 5.3C6.7998 5.4 6.87064 5.50834 6.9123 5.625C6.95397 5.74167 6.9748 5.86667 6.9748 6C6.9748 6.13334 6.95397 6.25834 6.9123 6.375C6.87064 6.49167 6.7998 6.6 6.6998 6.7L2.0998 11.3C1.91647 11.4833 1.68314 11.575 1.3998 11.575C1.11647 11.575 0.883138 11.4833 0.699805 11.3C0.516471 11.1167 0.424805 10.8833 0.424805 10.6C0.424805 10.3167 0.516471 10.0833 0.699805 9.9L4.5998 6Z" fill="#38866C"/>
</svg>
