<svg width="26" height="26" viewBox="0 0 26 26" fill="none" xmlns="http://www.w3.org/2000/svg">
<mask id="mask0_222_457" style="mask-type:alpha" maskUnits="userSpaceOnUse" x="0" y="0" width="26" height="26">
<rect width="26" height="26" fill="#5B5B5B"/>
</mask>
<g mask="url(#mask0_222_457)">
<path d="M12.9998 19.5L8.44984 21.45C7.72762 21.7569 7.0415 21.6983 6.3915 21.274C5.7415 20.8497 5.4165 20.2493 5.4165 19.4729V5.41667C5.4165 4.82083 5.62866 4.31076 6.05296 3.88646C6.47727 3.46215 6.98734 3.25 7.58317 3.25H18.4165C19.0123 3.25 19.5224 3.46215 19.9467 3.88646C20.371 4.31076 20.5832 4.82083 20.5832 5.41667V19.4729C20.5832 20.2493 20.2582 20.8497 19.6082 21.274C18.9582 21.6983 18.2721 21.7569 17.5498 21.45L12.9998 19.5ZM12.9998 17.1167L18.4165 19.4458V5.41667H7.58317V19.4458L12.9998 17.1167Z" fill="#5B5B5B"/>
</g>
</svg>
