<svg width="26" height="26" viewBox="0 0 26 26" fill="none" xmlns="http://www.w3.org/2000/svg">
<mask id="mask0_870_2207" style="mask-type:alpha" maskUnits="userSpaceOnUse" x="0" y="0" width="26" height="26">
<rect width="26" height="26" fill="#D9D9D9"/>
</mask>
<g mask="url(#mask0_870_2207)">
<path d="M12.9993 19.5L8.44935 21.45C7.72713 21.7569 7.04102 21.6983 6.39102 21.274C5.74102 20.8497 5.41602 20.2493 5.41602 19.4729V5.41667C5.41602 4.82083 5.62817 4.31076 6.05247 3.88646C6.47678 3.46215 6.98685 3.25 7.58268 3.25H18.416C19.0118 3.25 19.5219 3.46215 19.9462 3.88646C20.3705 4.31076 20.5827 4.82083 20.5827 5.41667V19.4729C20.5827 20.2493 20.2577 20.8497 19.6077 21.274C18.9577 21.6983 18.2716 21.7569 17.5493 21.45L12.9993 19.5Z" fill="#5B5B5B"/>
</g>
</svg>
