<svg width="20" height="20" viewBox="0 0 20 20" fill="none" xmlns="http://www.w3.org/2000/svg">
<mask id="mask0_415_89" style="mask-type:alpha" maskUnits="userSpaceOnUse" x="0" y="0" width="20" height="20">
<rect width="20" height="20" fill="#222222"/>
</mask>
<g mask="url(#mask0_415_89)">
<path d="M9.99992 16.125C11.6944 14.5694 12.9513 13.1562 13.7708 11.8854C14.5902 10.6146 14.9999 9.48611 14.9999 8.5C14.9999 6.98611 14.5173 5.74653 13.552 4.78125C12.5867 3.81597 11.4027 3.33333 9.99992 3.33333C8.59714 3.33333 7.41311 3.81597 6.44784 4.78125C5.48256 5.74653 4.99992 6.98611 4.99992 8.5C4.99992 9.48611 5.40964 10.6146 6.22909 11.8854C7.04853 13.1562 8.30547 14.5694 9.99992 16.125ZM9.99992 17.7708C9.80547 17.7708 9.61103 17.7361 9.41659 17.6667C9.22214 17.5972 9.04853 17.4931 8.89575 17.3542C7.99297 16.5208 7.19436 15.7083 6.49992 14.9167C5.80547 14.125 5.22561 13.3576 4.76034 12.6146C4.29506 11.8715 3.94089 11.1562 3.69784 10.4687C3.45478 9.78125 3.33325 9.125 3.33325 8.5C3.33325 6.41666 4.00339 4.75694 5.34367 3.52083C6.68395 2.28472 8.23603 1.66666 9.99992 1.66666C11.7638 1.66666 13.3159 2.28472 14.6562 3.52083C15.9964 4.75694 16.6666 6.41666 16.6666 8.5C16.6666 9.125 16.5451 9.78125 16.302 10.4687C16.0589 11.1562 15.7048 11.8715 15.2395 12.6146C14.7742 13.3576 14.1944 14.125 13.4999 14.9167C12.8055 15.7083 12.0069 16.5208 11.1041 17.3542C10.9513 17.4931 10.7777 17.5972 10.5833 17.6667C10.3888 17.7361 10.1944 17.7708 9.99992 17.7708ZM9.99992 10C10.4583 10 10.8506 9.8368 11.177 9.51041C11.5034 9.18403 11.6666 8.79166 11.6666 8.33333C11.6666 7.875 11.5034 7.48264 11.177 7.15625C10.8506 6.82986 10.4583 6.66666 9.99992 6.66666C9.54158 6.66666 9.14922 6.82986 8.82284 7.15625C8.49645 7.48264 8.33325 7.875 8.33325 8.33333C8.33325 8.79166 8.49645 9.18403 8.82284 9.51041C9.14922 9.8368 9.54158 10 9.99992 10Z" fill="#222222"/>
</g>
</svg>
