<svg width="20" height="20" viewBox="0 0 20 20" fill="none" xmlns="http://www.w3.org/2000/svg">
<mask id="mask0_398_44" style="mask-type:alpha" maskUnits="userSpaceOnUse" x="0" y="0" width="20" height="20">
<rect width="20" height="20" fill="#D9D9D9"/>
</mask>
<g mask="url(#mask0_398_44)">
<path d="M7.85417 13.7917C6.20139 13.7917 4.80208 13.2187 3.65625 12.0729C2.51042 10.9271 1.9375 9.52777 1.9375 7.87499C1.9375 6.22222 2.51042 4.82291 3.65625 3.67708C4.80208 2.53124 6.20139 1.95833 7.85417 1.95833C9.50695 1.95833 10.9063 2.53124 12.0521 3.67708C13.1979 4.82291 13.7708 6.22222 13.7708 7.87499C13.7708 8.49999 13.684 9.09722 13.5104 9.66666C13.3368 10.2361 13.0833 10.743 12.75 11.1875L17.2917 15.7292C17.5 15.9375 17.6042 16.1944 17.6042 16.5C17.6042 16.8056 17.5 17.0625 17.2917 17.2708C17.0833 17.4792 16.8264 17.5833 16.5208 17.5833C16.2153 17.5833 15.9583 17.4792 15.75 17.2708L11.2292 12.75C10.8125 13.0694 10.3021 13.3229 9.69792 13.5104C9.09375 13.6979 8.47917 13.7917 7.85417 13.7917ZM7.85417 11.5833C8.89583 11.5833 9.77431 11.2257 10.4896 10.5104C11.2049 9.79513 11.5625 8.91666 11.5625 7.87499C11.5625 6.83333 11.2049 5.95486 10.4896 5.23958C9.77431 4.5243 8.89583 4.16666 7.85417 4.16666C6.8125 4.16666 5.93403 4.5243 5.21875 5.23958C4.50347 5.95486 4.14583 6.83333 4.14583 7.87499C4.14583 8.91666 4.50347 9.79513 5.21875 10.5104C5.93403 11.2257 6.8125 11.5833 7.85417 11.5833Z" fill="white"/>
</g>
</svg>
