<svg width="48" height="48" viewBox="0 0 48 48" fill="none" xmlns="http://www.w3.org/2000/svg">
<rect x="0.5" y="0.5" width="47" height="47" rx="15.5" fill="#CEFFEF" stroke="#38866C"/>
<mask id="mask0_222_380" style="mask-type:alpha" maskUnits="userSpaceOnUse" x="8" y="8" width="32" height="32">
<rect x="8" y="8" width="32" height="32" fill="#22644E"/>
</mask>
<g mask="url(#mask0_222_380)">
<path d="M14.7999 29.4C14.311 28.5555 13.9444 27.6889 13.6999 26.8C13.4555 25.9111 13.3333 25 13.3333 24.0666C13.3333 21.0889 14.3666 18.5555 16.4333 16.4666C18.4999 14.3778 21.0221 13.3333 23.9999 13.3333H24.2333L22.0999 11.2L23.9666 9.33331L29.2999 14.6666L23.9666 20L22.0999 18.1333L24.2333 16H23.9999C21.7777 16 19.8888 16.7833 18.3333 18.35C16.7777 19.9166 15.9999 21.8222 15.9999 24.0666C15.9999 24.6444 16.0666 25.2111 16.1999 25.7666C16.3333 26.3222 16.5333 26.8666 16.7999 27.4L14.7999 29.4ZM24.0333 38.6666L18.6999 33.3333L24.0333 28L25.8999 29.8666L23.7666 32H23.9999C26.2221 32 28.111 31.2166 29.6666 29.65C31.2221 28.0833 31.9999 26.1778 31.9999 23.9333C31.9999 23.3555 31.9333 22.7889 31.7999 22.2333C31.6666 21.6778 31.4666 21.1333 31.1999 20.6L33.1999 18.6C33.6888 19.4444 34.0555 20.3111 34.2999 21.2C34.5444 22.0889 34.6666 23 34.6666 23.9333C34.6666 26.9111 33.6333 29.4444 31.5666 31.5333C29.4999 33.6222 26.9777 34.6666 23.9999 34.6666H23.7666L25.8999 36.8L24.0333 38.6666Z" fill="#22644E"/>
</g>
</svg>
