<svg width="20" height="20" viewBox="0 0 20 20" fill="none" xmlns="http://www.w3.org/2000/svg">
<circle cx="10" cy="10" r="10" fill="#0084FF"/>
<path d="M8.305 12.3594L13.6019 7.0625C13.7269 6.9375 13.8753 6.875 14.0472 6.875C14.2191 6.875 14.3675 6.9375 14.4925 7.0625C14.6175 7.1875 14.68 7.33594 14.68 7.50781C14.68 7.67969 14.6175 7.82812 14.4925 7.95312L8.7425 13.7031C8.6175 13.8281 8.47167 13.8906 8.305 13.8906C8.13833 13.8906 7.9925 13.8281 7.8675 13.7031L5.18 11.0156C5.055 10.8906 4.9951 10.7422 5.00031 10.5703C5.00552 10.3984 5.07063 10.25 5.19563 10.125C5.32063 10 5.46906 9.9375 5.64094 9.9375C5.81281 9.9375 5.96125 10 6.08625 10.125L8.305 12.3594Z" fill="white"/>
</svg>
