<svg width="48" height="48" viewBox="0 0 48 48" fill="none" xmlns="http://www.w3.org/2000/svg">
<rect x="0.5" y="0.5" width="47" height="47" rx="15.5" fill="#CEFFEF" stroke="#38866C"/>
<mask id="mask0_333_78" style="mask-type:alpha" maskUnits="userSpaceOnUse" x="8" y="8" width="32" height="32">
<rect x="8" y="8" width="32" height="32" fill="#22644E"/>
</mask>
<g mask="url(#mask0_333_78)">
<path d="M27.1333 35.7L20 33.2L13.8 35.6C13.5778 35.6889 13.3611 35.7167 13.15 35.6833C12.9389 35.65 12.7444 35.5778 12.5667 35.4667C12.3889 35.3555 12.25 35.2055 12.15 35.0167C12.05 34.8278 12 34.6111 12 34.3667V15.6667C12 15.3778 12.0833 15.1222 12.25 14.9C12.4167 14.6778 12.6444 14.5111 12.9333 14.4L19.1333 12.3C19.2667 12.2555 19.4056 12.2222 19.55 12.2C19.6944 12.1778 19.8444 12.1667 20 12.1667C20.1556 12.1667 20.3056 12.1778 20.45 12.2C20.5944 12.2222 20.7333 12.2555 20.8667 12.3L28 14.8L34.2 12.4C34.4222 12.3111 34.6389 12.2833 34.85 12.3167C35.0611 12.35 35.2556 12.4222 35.4333 12.5333C35.6111 12.6444 35.75 12.7944 35.85 12.9833C35.95 13.1722 36 13.3889 36 13.6333V32.3333C36 32.6222 35.9167 32.8778 35.75 33.1C35.5833 33.3222 35.3556 33.4889 35.0667 33.6L28.8667 35.7C28.7333 35.7444 28.5944 35.7778 28.45 35.8C28.3056 35.8222 28.1556 35.8333 28 35.8333C27.8444 35.8333 27.6944 35.8222 27.55 35.8C27.4056 35.7778 27.2667 35.7444 27.1333 35.7ZM26.6667 32.7333V17.1333L21.3333 15.2667V30.8667L26.6667 32.7333Z" fill="#22644E"/>
</g>
</svg>
